<?xml version="1.0" standalone="no"?>
<!DOCTYPE svg PUBLIC "-//W3C//DTD SVG 20010904//EN"
 "http://www.w3.org/TR/2001/REC-SVG-20010904/DTD/svg10.dtd">
<svg version="1.0" xmlns="http://www.w3.org/2000/svg"
 width="1024.000000pt" height="1024.000000pt" viewBox="0 0 1024.000000 1024.000000"
 preserveAspectRatio="xMidYMid meet">

<g transform="translate(0.000000,1024.000000) scale(0.100000,-0.100000)"
fill="#000000" stroke="none">
<path d="M0 5120 l0 -5120 5120 0 5120 0 0 5120 0 5120 -5120 0 -5120 0 0
-5120z m5585 4746 c1048 -88 2051 -538 2819 -1266 653 -618 1095 -1369 1320
-2240 72 -281 112 -511 137 -795 21 -237 13 -727 -16 -939 -28 -205 -41 -285
-71 -422 -258 -1208 -981 -2274 -1999 -2951 -810 -538 -1692 -804 -2660 -804
-592 0 -1106 92 -1665 299 -511 189 -977 462 -1416 828 -573 479 -1071 1171
-1341 1864 -293 750 -392 1542 -293 2342 74 592 285 1226 580 1738 272 471
636 909 1034 1243 685 574 1445 923 2307 1061 407 65 819 79 1264 42z"/>
<path d="M4825 9800 c-1164 -82 -2166 -520 -2980 -1302 -1001 -962 -1509
-2345 -1379 -3753 82 -888 403 -1697 955 -2411 497 -643 1199 -1168 1968
-1474 589 -234 1173 -340 1806 -327 401 8 702 46 1073 138 674 165 1356 519
1902 985 654 558 1139 1291 1408 2124 147 457 212 884 212 1399 0 718 -149
1374 -459 2025 -341 716 -922 1380 -1596 1824 -250 165 -602 350 -850 448
-413 161 -904 277 -1308 309 -49 4 -100 8 -115 10 -71 10 -522 13 -637 5z
m790 -375 c224 -59 389 -241 525 -581 l33 -81 82 -7 c319 -24 586 -130 732
-289 68 -75 87 -117 91 -207 7 -141 -58 -270 -218 -430 -129 -130 -265 -222
-486 -331 l-161 -79 -44 -198 c-37 -168 -44 -213 -44 -307 0 -60 3 -132 8
-160 l7 -50 -37 55 c-78 116 -138 301 -131 409 3 62 -5 79 -18 39 -10 -32 -98
-122 -156 -159 -27 -17 -51 -30 -53 -28 -2 2 14 31 36 64 107 163 168 416 140
585 -14 84 -62 182 -107 216 -49 38 -117 43 -175 14 -58 -29 -186 -160 -226
-230 -17 -30 -39 -82 -48 -115 -35 -121 4 -335 108 -596 71 -178 81 -222 81
-359 0 -176 -38 -314 -137 -505 -123 -237 -338 -432 -583 -531 -160 -65 -237
-78 -444 -79 -212 0 -268 10 -347 62 -114 75 -156 160 -155 313 0 52 7 121 15
153 l15 58 -37 23 c-84 54 -114 114 -112 229 1 126 44 193 161 252 153 77 335
72 615 -19 44 -14 106 -29 138 -33 l57 -6 0 51 c0 77 27 200 57 261 14 30 87
136 162 235 74 99 143 198 154 219 15 32 18 61 18 158 -2 168 -16 195 -95 177
-104 -23 -252 -114 -471 -289 -77 -61 -150 -115 -163 -120 -41 -16 -89 -10
-184 22 -152 50 -250 49 -328 -4 -58 -38 -68 -68 -80 -228 -6 -79 -18 -171
-27 -204 -24 -90 -23 -117 7 -132 l25 -13 -27 0 c-67 0 -112 45 -124 127 l-6
43 -162 0 c-244 0 -403 30 -562 106 -221 105 -278 284 -168 522 115 249 449
492 986 716 359 149 891 310 1553 471 126 31 232 59 235 62 9 9 -360 -14 -670
-43 -513 -48 -964 -145 -1183 -255 -70 -36 -132 -90 -156 -138 l-19 -35 -4 44
c-3 25 -5 146 -4 270 2 251 9 289 72 418 42 86 148 199 237 251 133 78 282
113 487 114 182 0 274 -16 500 -88 164 -53 300 -88 308 -81 5 6 -176 97 -263
132 -52 22 -71 33 -55 34 14 0 113 18 220 41 107 22 236 48 285 59 112 23 242
25 320 5z m-2810 -4562 c51 -27 99 -77 122 -128 16 -36 18 -82 21 -482 l3
-443 -111 0 -110 0 0 419 0 420 -22 15 c-15 11 -45 16 -90 16 -120 0 -108 101
-108 -932 0 -815 1 -893 17 -910 22 -24 163 -26 187 -2 14 13 16 52 16 270 l0
254 -55 0 -55 0 0 105 0 105 166 0 165 0 -3 -387 c-3 -386 -3 -388 -27 -437
-25 -50 -84 -100 -144 -123 -18 -6 -88 -12 -157 -12 -104 0 -132 3 -168 19
-73 33 -103 61 -131 119 l-26 56 0 940 c0 1025 -2 983 58 1051 62 72 136 94
297 91 95 -2 122 -7 155 -24z m4944 11 c36 -10 67 -29 101 -62 79 -77 80 -84
80 -579 l0 -423 -110 0 -110 0 0 417 c0 488 8 453 -106 453 -82 0 -99 -10
-109 -63 -4 -18 -5 -224 -3 -457 2 -339 6 -430 17 -450 7 -14 98 -111 202
-215 116 -117 194 -205 204 -228 22 -53 22 -411 -1 -488 -21 -72 -91 -141
-165 -163 -60 -18 -224 -21 -281 -6 -68 19 -130 70 -162 134 l-30 58 -4 219
-4 219 113 0 114 0 0 -193 c0 -150 3 -198 14 -210 10 -13 31 -17 92 -17 112 0
109 -6 109 207 l0 176 -204 207 c-187 189 -206 211 -220 260 -14 46 -16 120
-16 495 0 276 4 463 11 500 23 123 79 186 194 215 55 14 218 11 274 -6z
m-4079 -3 c0 -13 47 -450 60 -551 5 -47 17 -155 25 -240 9 -85 18 -171 20
-190 2 -19 14 -125 25 -235 11 -110 23 -216 25 -235 3 -19 16 -138 30 -265 13
-126 31 -291 40 -365 22 -202 34 -180 -95 -180 l-109 0 -5 33 c-3 17 -15 131
-26 252 -11 121 -23 230 -25 243 -5 22 -7 23 -133 20 l-127 -3 -27 -270 c-15
-148 -27 -271 -27 -272 -1 -2 -50 -3 -111 -3 -104 0 -110 1 -110 20 0 12 11
121 25 243 37 340 63 581 75 702 6 61 13 124 15 140 3 17 14 125 25 240 12
116 23 224 25 240 5 30 36 324 55 515 6 58 13 120 16 138 l5 32 164 0 c92 0
165 -4 165 -9z m956 -15 c58 -27 106 -80 123 -135 8 -27 11 -208 11 -600 0
-618 1 -602 -62 -668 -17 -17 -44 -37 -59 -44 -16 -6 -29 -19 -29 -28 0 -9 40
-186 88 -394 l89 -378 -116 3 -115 3 -85 373 -85 372 -38 0 -38 0 0 -375 0
-375 -110 0 -110 0 0 1135 0 1135 243 0 c233 0 244 -1 293 -24z m890 5 c22
-10 57 -36 77 -56 66 -68 67 -74 67 -674 0 -498 -2 -539 -19 -576 -10 -23 -32
-52 -48 -66 l-30 -25 38 -32 c23 -20 42 -47 49 -70 16 -59 13 -529 -4 -586
-20 -66 -57 -110 -118 -140 -52 -26 -53 -26 -295 -26 l-243 0 0 1135 0 1135
243 0 c214 0 247 -3 283 -19z m1034 -81 l0 -100 -220 0 -220 0 0 -555 0 -555
160 0 160 0 0 -105 0 -105 -160 0 -160 0 0 -275 0 -275 220 0 220 0 0 -100 0
-100 -330 0 -330 0 0 1135 0 1135 330 0 330 0 0 -100z m492 -42 c3 -150 0
-163 -46 -217 -12 -13 -34 -32 -50 -41 -26 -17 -32 -17 -80 -3 -28 8 -55 18
-59 23 -5 4 3 24 17 45 34 49 33 55 -9 55 l-35 0 0 140 0 140 130 0 129 0 3
-142z m-4467 -2502 c63 -27 83 -112 36 -152 -17 -15 -16 -17 11 -44 20 -21 28
-38 28 -65 0 -85 -38 -105 -195 -105 l-115 0 0 190 0 190 100 0 c65 0 113 -5
135 -14z m713 -168 c45 -101 82 -186 82 -190 0 -5 -9 -8 -21 -8 -15 0 -26 13
-42 50 l-22 50 -103 0 -103 0 -21 -50 c-17 -40 -25 -50 -44 -50 -13 0 -24 2
-24 4 0 2 27 63 61 137 34 74 72 158 85 187 18 41 28 52 46 52 21 0 33 -21
106 -182z m665 168 c46 -19 71 -61 71 -118 0 -39 -5 -53 -29 -78 -16 -16 -35
-30 -42 -30 -20 0 -17 -6 33 -77 l47 -65 -29 4 c-22 2 -38 16 -68 61 l-40 57
-63 0 -63 0 0 -60 c0 -53 -2 -60 -20 -60 -19 0 -20 7 -20 190 l0 190 95 0 c58
0 108 -5 128 -14z m691 0 c65 -27 83 -84 46 -144 -17 -27 -18 -34 -6 -38 23
-9 48 -72 41 -103 -3 -16 -17 -39 -31 -52 -24 -22 -35 -24 -155 -27 l-129 -4
0 191 0 191 100 0 c63 0 113 -5 134 -14z m736 -6 c0 -19 -7 -20 -105 -20
l-105 0 0 -65 0 -65 95 0 c88 0 95 -1 95 -20 0 -19 -7 -20 -95 -20 l-95 0 0
-65 0 -65 110 0 c103 0 110 -1 110 -20 0 -19 -7 -20 -135 -20 l-135 0 0 190 0
190 130 0 c123 0 130 -1 130 -20z m637 -165 c45 -99 82 -183 82 -187 1 -5 -9
-8 -22 -8 -18 0 -28 11 -44 50 l-21 50 -104 0 -103 0 -22 -50 c-16 -38 -27
-50 -43 -50 -27 0 -31 -14 68 208 103 230 98 230 209 -13z m667 171 c18 -7 43
-26 55 -42 32 -41 26 -127 -12 -160 -14 -12 -32 -24 -39 -26 -9 -3 -6 -15 13
-44 68 -104 64 -94 37 -94 -18 0 -35 15 -66 60 l-43 60 -59 0 -60 0 0 -60 c0
-57 -1 -60 -25 -60 l-25 0 0 190 0 190 95 0 c59 0 108 -5 129 -14z m516 -176
l0 -190 -25 0 -25 0 0 190 0 190 25 0 25 0 0 -190z m576 168 c4 -13 42 -98 85
-190 75 -162 77 -168 53 -168 -18 0 -29 11 -49 50 l-25 50 -101 0 -100 0 -21
-50 c-17 -40 -25 -50 -44 -50 -13 0 -24 2 -24 4 0 2 27 63 61 137 34 74 72
158 85 187 19 42 27 52 48 52 17 0 27 -7 32 -22z"/>
<path d="M4118 6336 c-59 -21 -89 -45 -104 -81 -25 -61 -21 -68 36 -61 27 4
68 14 92 22 24 9 86 22 138 30 52 8 131 25 175 37 l79 21 -59 20 c-79 25 -302
33 -357 12z"/>
<path d="M3501 4438 c-1 -3 -15 -152 -31 -330 -51 -549 -60 -641 -66 -690 l-7
-48 108 0 107 0 -6 53 c-3 28 -9 84 -12 122 -17 177 -92 899 -93 893z"/>
<path d="M4310 4125 l0 -555 104 0 c84 0 106 3 117 17 11 13 15 108 17 497 2
265 0 500 -3 523 -10 67 -22 73 -136 73 l-99 0 0 -555z"/>
<path d="M5200 4125 l0 -555 103 0 c88 0 106 3 120 18 15 17 17 69 17 540 0
460 -2 522 -16 536 -12 13 -38 16 -120 16 l-104 0 0 -555z"/>
<path d="M5200 3085 l0 -275 103 0 c88 0 106 3 120 18 15 16 17 49 17 259 0
292 9 273 -138 273 l-102 0 0 -275z"/>
<path d="M2380 2145 l0 -65 79 0 c88 0 131 21 131 65 0 44 -43 65 -131 65
l-79 0 0 -65z"/>
<path d="M2382 1973 l3 -68 89 0 c84 1 89 2 112 28 30 35 30 52 -1 82 -22 23
-32 25 -115 25 l-91 0 3 -67z"/>
<path d="M3140 2109 c-19 -45 -36 -86 -38 -90 -2 -5 33 -9 77 -9 45 0 81 3 81
8 0 12 -74 172 -80 172 -3 0 -21 -37 -40 -81z"/>
<path d="M3770 2120 l0 -92 81 4 c74 3 83 6 105 31 13 16 24 41 24 57 0 16
-11 41 -24 57 -22 25 -31 28 -105 31 l-81 4 0 -92z"/>
<path d="M4460 2145 l0 -65 78 0 c94 0 122 15 122 65 0 50 -28 65 -122 65
l-78 0 0 -65z"/>
<path d="M4460 1970 l0 -70 63 0 c34 0 79 5 99 10 61 17 77 73 32 109 -22 17
-41 21 -110 21 l-84 0 0 -70z"/>
<path d="M5900 2191 c0 -7 -18 -51 -39 -97 l-40 -84 85 0 c46 0 84 2 84 4 0 7
-77 176 -83 183 -4 3 -7 1 -7 -6z"/>
<path d="M6510 2120 l0 -90 60 0 c84 0 125 19 140 64 9 28 9 41 -2 63 -18 39
-53 53 -130 53 l-68 0 0 -90z"/>
<path d="M7700 2109 c-19 -45 -36 -86 -38 -90 -2 -5 33 -9 78 -9 74 0 81 2 75
17 -20 53 -71 163 -75 163 -3 0 -21 -37 -40 -81z"/>
</g>
</svg>
