<?xml version="1.0" standalone="no"?>
<!DOCTYPE svg PUBLIC "-//W3C//DTD SVG 20010904//EN"
 "http://www.w3.org/TR/2001/REC-SVG-20010904/DTD/svg10.dtd">
<svg version="1.0" xmlns="http://www.w3.org/2000/svg"
 width="1024.000000pt" height="1024.000000pt" viewBox="0 0 1024.000000 1024.000000"
 preserveAspectRatio="xMidYMid meet">

<g transform="translate(0.000000,1024.000000) scale(0.100000,-0.100000)"
fill="#000000" stroke="none">
<path d="M4825 9730 c-671 -49 -1225 -199 -1795 -486 -884 -445 -1604 -1165
-2030 -2029 -264 -536 -409 -1042 -471 -1645 -17 -163 -17 -696 -1 -860 101
-982 477 -1854 1130 -2619 164 -192 440 -448 666 -617 695 -522 1450 -821
2326 -921 214 -24 721 -24 938 0 339 38 672 110 985 213 579 191 1145 520
1646 959 267 233 386 363 621 680 934 1253 1157 2957 579 4425 -118 300 -265
584 -431 832 -623 932 -1518 1593 -2568 1894 -405 116 -775 170 -1230 178
-135 3 -299 1 -365 -4z m721 -105 c731 -69 1391 -292 2000 -676 724 -456 1289
-1094 1670 -1884 368 -763 503 -1640 388 -2525 -101 -785 -419 -1545 -909
-2175 -102 -132 -365 -416 -490 -529 -253 -231 -546 -442 -875 -631 -394 -227
-861 -401 -1325 -494 -757 -152 -1558 -105 -2290 135 -580 190 -1111 496
-1606 925 -644 558 -1164 1422 -1373 2281 -141 581 -170 1079 -96 1673 132
1049 657 2059 1431 2749 763 681 1667 1072 2668 1155 173 15 636 12 807 -4z"/>
<path d="M5360 9204 c-14 -2 -59 -9 -100 -15 -41 -6 -159 -35 -262 -65 -103
-30 -194 -54 -202 -54 -31 0 -15 -18 22 -25 34 -6 265 -93 250 -94 -4 -1 -112
26 -240 58 -270 69 -346 81 -508 81 -207 0 -372 -36 -507 -112 -78 -43 -201
-168 -240 -243 -56 -107 -63 -155 -74 -464 -6 -156 -8 -285 -5 -288 3 -3 19
11 36 31 81 92 195 144 461 211 465 117 791 171 1308 215 214 19 272 20 199 5
-237 -49 -819 -214 -1085 -309 -368 -131 -762 -290 -956 -387 -481 -242 -716
-489 -721 -759 -2 -127 56 -207 217 -298 148 -85 254 -106 584 -119 l163 -6
-6 -26 c-3 -14 -8 -34 -10 -43 -8 -28 14 -56 58 -78 23 -11 44 -18 46 -15 3 3
-3 22 -12 43 -16 35 -16 43 -3 98 9 32 23 118 32 189 21 169 30 202 69 241 75
75 197 72 368 -10 42 -20 84 -36 95 -36 10 0 92 59 183 130 272 215 474 345
523 338 38 -5 52 -52 52 -168 0 -127 -8 -144 -144 -329 -153 -207 -194 -298
-211 -471 -12 -108 -27 -163 -44 -157 -76 29 -276 88 -330 98 -42 7 -115 10
-185 6 -191 -8 -306 -59 -361 -157 -19 -35 -25 -63 -28 -131 -6 -112 15 -162
86 -214 49 -35 50 -37 37 -62 -29 -56 -39 -159 -27 -281 15 -157 35 -196 121
-238 155 -77 435 -91 653 -33 107 29 317 134 414 207 284 214 475 587 474 926
0 111 -19 190 -79 332 -65 156 -121 349 -128 444 -15 211 132 450 308 500 48
14 103 -4 154 -51 62 -57 88 -123 93 -239 4 -104 -7 -169 -59 -329 -39 -121
-72 -186 -117 -233 l-36 -38 41 0 c36 0 49 7 95 49 30 27 67 68 83 91 15 22
29 39 31 37 2 -1 -3 -31 -12 -66 l-14 -63 27 -32 c16 -17 48 -82 72 -145 41
-108 75 -161 102 -161 7 0 9 11 5 33 -15 76 -18 218 -7 302 11 83 56 329 67
366 2 8 53 37 113 63 208 90 443 246 556 368 74 79 148 192 172 261 27 79 23
178 -9 249 -49 106 -149 193 -318 278 -151 76 -264 106 -436 117 l-102 6 -18
46 c-32 87 -122 260 -178 345 -75 112 -187 216 -263 245 -95 35 -232 49 -333
35z m-972 -3114 c46 -11 97 -20 115 -20 18 0 27 -4 22 -9 -16 -15 -112 -38
-265 -66 -80 -14 -170 -33 -201 -41 -31 -7 -60 -14 -64 -14 -19 0 5 85 32 111
58 58 213 74 361 39z"/>
<path d="M7522 4789 c-124 -22 -205 -83 -237 -179 -14 -41 -15 -104 -13 -436
3 -386 3 -389 27 -439 17 -36 71 -97 197 -221 107 -105 180 -186 189 -208 21
-49 21 -351 1 -400 -19 -45 -52 -66 -104 -66 -32 0 -49 6 -67 25 -25 24 -25
25 -25 230 l0 205 -111 0 -111 0 4 -222 c4 -247 7 -264 72 -336 54 -59 121
-85 237 -90 153 -7 244 30 302 123 46 74 48 95 39 336 -8 206 -10 228 -32 269
-13 27 -98 121 -206 230 -117 120 -185 196 -191 215 -4 17 -8 179 -8 360 0
296 2 333 18 362 21 40 49 56 100 56 29 0 46 -7 65 -27 l27 -26 3 -315 3 -315
109 0 110 0 0 324 c0 274 -3 332 -17 375 -21 67 -71 123 -131 149 -57 25 -175
35 -250 21z"/>
<path d="M2523 4770 c-95 -20 -182 -93 -203 -169 -7 -28 -10 -302 -8 -883 l3
-843 23 -56 c27 -68 49 -89 127 -126 56 -26 68 -28 180 -27 173 1 242 31 293
127 l27 52 3 358 3 357 -166 0 -165 0 0 -95 0 -95 55 0 55 0 0 -234 0 -234
-31 -26 c-60 -51 -158 -23 -178 51 -14 48 -15 1530 -1 1588 11 50 43 74 97 75
33 0 50 -7 75 -29 l33 -29 3 -306 3 -306 110 0 111 0 -4 313 c-4 261 -7 321
-22 365 -23 70 -83 135 -144 157 -54 20 -217 28 -279 15z"/>
<path d="M3360 4766 c0 -8 -34 -313 -75 -678 -41 -365 -81 -757 -90 -873 -8
-115 -24 -277 -35 -360 -29 -218 -39 -195 84 -195 100 0 104 1 109 23 3 12 18
124 33 250 15 125 32 233 36 240 8 12 201 18 213 5 4 -4 63 -474 65 -515 0 -2
50 -3 110 -3 109 0 110 0 106 23 -3 12 -10 81 -16 152 -21 242 -50 529 -75
720 -14 105 -47 404 -75 665 -27 261 -52 494 -56 518 l-5 42 -165 0 c-136 0
-164 -2 -164 -14z m225 -990 c19 -187 35 -354 35 -373 l0 -33 -101 0 -102 0 6
88 c5 74 28 282 89 787 l12 100 13 -115 c7 -63 29 -268 48 -454z"/>
<path d="M4107 4773 c-4 -6 -5 -482 -4 -1059 l2 -1049 108 -3 107 -3 0 356 0
356 58 -3 57 -3 26 -135 c14 -74 43 -227 64 -340 21 -113 40 -211 42 -217 6
-16 223 -19 223 -3 0 6 -34 175 -75 375 -41 201 -75 369 -75 374 0 5 16 18 36
30 24 15 43 38 62 78 l27 58 3 495 c2 344 0 507 -8 533 -16 53 -71 110 -133
138 -48 21 -68 23 -283 27 -139 2 -234 0 -237 -5z m371 -194 c17 -6 39 -23 49
-37 17 -25 18 -58 18 -452 0 -380 -2 -429 -17 -463 -22 -47 -65 -67 -148 -67
l-60 0 0 515 0 515 64 0 c34 0 77 -5 94 -11z"/>
<path d="M5005 4768 c-3 -8 -4 -484 -3 -1058 l3 -1045 230 0 c212 0 234 2 276
21 66 31 113 77 140 136 21 48 24 70 27 245 3 155 1 202 -12 247 -18 61 -62
118 -109 143 l-31 15 34 15 c45 18 68 40 94 88 20 39 21 52 24 485 2 245 1
468 -3 496 -4 32 -19 73 -38 105 -26 43 -44 59 -91 84 l-60 30 -238 4 c-197 2
-239 1 -243 -11z m379 -188 c54 -20 56 -34 56 -470 0 -264 -4 -416 -11 -446
-17 -65 -46 -84 -130 -84 l-69 0 0 505 0 505 64 0 c36 0 76 -4 90 -10z m12
-1223 c35 -41 44 -89 44 -232 -1 -219 -19 -254 -139 -263 l-71 -5 0 268 0 267
71 -4 c63 -3 74 -7 95 -31z"/>
<path d="M5910 3720 l0 -1060 318 2 317 3 0 98 -1 99 -207 -2 -207 -1 0 256 0
255 150 0 150 0 0 105 0 105 -150 0 -150 0 0 500 0 500 210 0 211 0 -3 98 -3
97 -317 3 -318 2 0 -1060z"/>
<path d="M6800 4640 l0 -140 50 0 c40 0 50 -3 50 -17 0 -19 -44 -80 -77 -106
-42 -33 -30 -47 40 -47 62 0 63 1 98 43 66 78 69 90 69 257 l0 150 -115 0
-115 0 0 -140z"/>
<path d="M3746 2323 l-28 -5 6 -151 c3 -84 9 -178 12 -209 l6 -58 44 0 45 0
-7 59 -6 59 38 4 c22 3 42 3 47 1 4 -2 25 -31 47 -64 40 -57 42 -59 85 -59
l45 0 -32 53 c-17 28 -38 60 -47 70 -13 16 -12 20 16 46 70 63 47 193 -41 231
-43 19 -175 33 -230 23z m205 -102 c17 -14 23 -28 22 -56 -1 -20 -6 -42 -11
-47 -6 -6 -43 -11 -84 -12 l-73 -1 -3 44 c-6 83 0 91 67 91 43 0 65 -5 82 -19z"/>
<path d="M7672 2298 c-7 -7 -12 -16 -12 -21 0 -6 -25 -65 -55 -133 -58 -128
-108 -255 -103 -259 2 -1 20 0 40 2 33 5 39 10 54 49 l17 44 98 0 97 0 14 -42
c14 -41 17 -43 56 -46 l42 -3 -45 124 c-24 69 -62 163 -84 211 -39 82 -43 86
-74 86 -18 0 -38 -5 -45 -12z m71 -145 c14 -32 30 -70 36 -85 l11 -28 -75 0
c-41 0 -75 3 -75 7 0 13 65 163 71 163 4 0 18 -26 32 -57z"/>
<path d="M2378 2294 c-26 -8 -32 -61 -25 -223 9 -211 -2 -194 131 -189 87 4
120 9 152 25 70 37 85 109 34 166 -29 33 -29 35 -11 51 48 44 32 115 -33 148
-31 16 -63 22 -136 24 -52 2 -103 1 -112 -2z m193 -74 c10 -6 19 -21 19 -34 0
-38 -34 -59 -100 -64 l-60 -4 0 56 0 56 61 0 c33 0 69 -5 80 -10z m16 -169
c48 -25 49 -72 2 -96 -16 -9 -56 -15 -94 -15 l-65 0 0 63 c0 35 2 66 5 68 8 9
130 -7 152 -20z"/>
<path d="M3138 2238 c-15 -35 -37 -92 -49 -128 -12 -36 -27 -72 -34 -80 -16
-21 -55 -115 -55 -135 0 -12 7 -15 28 -13 21 2 31 12 46 46 19 40 21 42 63 42
29 0 42 4 41 13 -2 8 14 12 57 12 33 0 60 -4 61 -10 0 -5 4 -19 8 -30 4 -11
12 -32 18 -47 11 -28 24 -33 66 -22 16 5 21 11 17 23 -4 9 -20 52 -36 96 -16
44 -52 128 -81 187 -52 106 -53 108 -88 108 -34 0 -37 -3 -62 -62z m101 -108
c17 -39 31 -75 31 -80 0 -6 -30 -10 -70 -10 -38 0 -70 3 -70 8 0 14 64 152 70
152 4 0 21 -32 39 -70z"/>
<path d="M4439 2293 l-35 -4 3 -112 c2 -62 5 -150 6 -197 l2 -85 123 3 c150 3
186 15 208 69 22 51 12 102 -25 133 -29 25 -29 25 -10 49 28 34 24 75 -10 113
-29 33 -30 33 -128 34 -54 1 -114 0 -134 -3z m203 -75 c37 -42 -17 -81 -106
-76 l-51 3 -3 47 c-3 44 -2 47 25 51 52 8 117 -4 135 -25z m5 -153 c19 -13 24
-23 21 -53 -4 -46 -31 -62 -111 -62 -64 0 -63 -1 -70 80 l-5 55 71 -2 c43 -2
79 -9 94 -18z"/>
<path d="M5097 2293 c-4 -3 -7 -91 -7 -194 0 -139 3 -190 13 -196 6 -4 76 -10
155 -11 l142 -4 0 37 0 37 -120 -7 -120 -7 0 51 0 51 104 0 104 0 0 35 0 35
-104 0 -104 0 0 50 c0 57 -11 53 133 50 l97 -2 0 41 0 41 -143 0 c-79 0 -147
-3 -150 -7z"/>
<path d="M5822 2158 c-72 -169 -102 -245 -102 -258 0 -6 18 -10 40 -10 37 0
40 2 51 39 l12 40 66 6 c36 3 76 10 89 16 13 5 27 9 31 9 10 0 41 -78 41 -103
0 -14 9 -17 45 -17 25 0 45 2 45 3 0 2 -6 17 -14 33 -31 66 -77 175 -117 277
l-42 107 -42 0 -42 0 -61 -142z m146 -22 c17 -41 32 -79 32 -85 0 -7 -27 -11
-74 -11 l-75 0 37 85 c20 46 39 85 42 85 3 0 20 -34 38 -74z"/>
<path d="M6437 2293 c-2 -5 -3 -98 -3 -208 l1 -200 33 -3 32 -3 0 70 c0 54 3
71 14 71 7 0 27 3 43 6 26 5 33 1 72 -55 48 -68 65 -81 113 -81 41 0 77 19 38
20 -20 1 -34 14 -66 64 l-40 64 32 17 c39 21 54 52 54 115 0 60 -33 104 -88
120 -43 11 -229 14 -235 3z m201 -64 c19 -6 35 -22 42 -40 26 -62 -29 -109
-130 -109 l-50 0 0 74 c0 63 3 75 18 79 33 9 89 7 120 -4z"/>
<path d="M7098 2105 c3 -142 1 -199 -8 -210 -10 -12 -7 -13 22 -9 18 2 43 6
55 7 22 3 22 6 26 205 l4 202 -51 0 -52 0 4 -195z"/>
</g>
</svg>
